<?xml version="1.0" encoding="UTF-8" standalone="no"?>
<!-- Created with Inkscape (http://www.inkscape.org/) -->

<svg
   xmlns:dc="http://purl.org/dc/elements/1.1/"
   xmlns:cc="http://creativecommons.org/ns#"
   xmlns:rdf="http://www.w3.org/1999/02/22-rdf-syntax-ns#"
   xmlns:svg="http://www.w3.org/2000/svg"
   xmlns="http://www.w3.org/2000/svg"
   xmlns:sodipodi="http://sodipodi.sourceforge.net/DTD/sodipodi-0.dtd"
   xmlns:inkscape="http://www.inkscape.org/namespaces/inkscape"
   width="3551.3999"
   height="4447.7998"
   id="svg4368"
   sodipodi:version="0.32"
   inkscape:version="0.48.2 r9819"
   version="1.0"
   sodipodi:docname="ANSI_size_illustration2.svg">
  <title
     id="title3033">ANSI drawing sheet sizes</title>
  <defs
     id="defs4370" />
  <sodipodi:namedview
     id="base"
     pagecolor="#ffffff"
     bordercolor="#666666"
     borderopacity="1.0"
     gridtolerance="10000"
     guidetolerance="10"
     objecttolerance="10"
     inkscape:pageopacity="0.0"
     inkscape:pageshadow="2"
     inkscape:zoom="0.16727372"
     inkscape:cx="693.64113"
     inkscape:cy="2223.8999"
     inkscape:document-units="px"
     inkscape:current-layer="layer1"
     width="39.46in"
     inkscape:showpageshadow="false"
     borderlayer="true"
     height="49.42in"
     inkscape:window-width="1280"
     inkscape:window-height="945"
     inkscape:window-x="0"
     inkscape:window-y="27"
     showgrid="false"
     inkscape:window-maximized="1" />
  <metadata
     id="metadata4373">
    <rdf:RDF>
      <cc:Work
         rdf:about="">
        <dc:format>image/svg+xml</dc:format>
        <dc:type
           rdf:resource="http://purl.org/dc/dcmitype/StillImage" />
        <dc:title>ANSI drawing sheet sizes</dc:title>
      </cc:Work>
    </rdf:RDF>
  </metadata>
  <g
     inkscape:label="Layer 1"
     inkscape:groupmode="layer"
     id="layer1"
     transform="translate(1269.409,1342.449)">
    <rect
       x="-911.0957"
       y="-986.62286"
       width="3056.4038"
       height="3955.3508"
       id="rect48"
       style="fill:#818181;fill-opacity:1;stroke:#000000;stroke-width:3.64148712;stroke-opacity:1" />
    <rect
       x="-911.0957"
       y="991.05231"
       width="3056.4038"
       height="1977.6643"
       id="rect55"
       style="fill:#ffffff;fill-opacity:1;stroke:#000000;stroke-width:3.64148712;stroke-opacity:1" />
    <path
       inkscape:connector-curvature="0"
       id="path8466"
       d="m -911.09573,-979.00359 0,-226.82391"
       style="fill:none;stroke:#010101;stroke-width:3.63857603" />
    <path
       inkscape:connector-curvature="0"
       id="path8468"
       d="m 2145.3082,-979.00359 0,-226.82391"
       style="fill:none;stroke:#010101;stroke-width:3.63857603" />
    <path
       inkscape:connector-curvature="0"
       id="path8470"
       d="m -875.10759,-986.62652 -257.62021,0"
       style="fill:none;stroke:#010101;stroke-width:3.63857579" />
    <path
       inkscape:connector-curvature="0"
       id="path8476"
       d="m -909.71935,2.2120327 -116.01915,0"
       style="fill:none;stroke:#010101;stroke-width:3.63857579" />
    <path
       inkscape:connector-curvature="0"
       id="path9351"
       sodipodi:nodetypes="cc"
       d="m -911.51652,991.05239 -110.60648,0"
       style="fill:none;stroke:#010101;stroke-width:3.63857532" />
    <path
       inkscape:connector-curvature="0"
       id="path11120"
       d="m -912.69781,2968.724 -216.80769,0"
       style="fill:none;stroke:#010101;stroke-width:3.63857508" />
    <path
       inkscape:connector-curvature="0"
       id="path11130"
       d="m -147.03664,-978.23397 0,-121.96163"
       style="fill:none;stroke:#010101;stroke-width:3.63857746" />
    <path
       inkscape:connector-curvature="0"
       id="path11132"
       sodipodi:nodetypes="cc"
       d="m 617.0915,-988.07508 0,-115.03142"
       style="fill:none;stroke:#010101;stroke-width:3.63857627" />
    <g
       id="g4572"
       transform="matrix(3.6385761,0,0,3.6385761,-1129.5522,-1318.3774)">
      <path
         inkscape:connector-curvature="0"
         id="rect11134"
         transform="translate(-2.948621e-5,0)"
         d="m 75.96875,36.28125 -15.375,4.625 15.375,4.65625 0,-3.1875 363.0625,0 0,-2.9375 -363.0625,0 0,-3.15625 z m 809.15625,0 0,3.15625 -363.03125,0 0,2.9375 363.03125,0 0,3.1875 15.375,-4.65625 -15.375,-4.625 z"
         style="fill:#010101" />
      <text
         style="font-size:18.0345993px;fill:#010101;font-family:ArialMT"
         id="text18"
         font-size="18.0346"
         transform="translate(458.8798,47.28858)">34 in.</text>
    </g>
    <g
       id="g4577"
       transform="matrix(3.6323579,0,0,3.6385761,-1123.9542,-1129.8157)">
      <path
         inkscape:connector-curvature="0"
         id="path13763"
         transform="translate(-2.948621e-5,0)"
         d="m 495.1875,12.4375 -15.375,4.625 15.375,4.65625 0,-3.1875 156.1875,0 0,-2.9375 -156.1875,0 0,-3.15625 z m 389.9375,0 0,3.15625 -156.15625,0 0,2.9375 156.15625,0 0,3.1875 15.375,-4.65625 -15.375,-4.625 z"
         style="fill:#010101" />
      <text
         style="font-size:18.0345993px;fill:#010101;font-family:ArialMT"
         id="text21"
         font-size="18.0346"
         transform="translate(667.886,23.55931)">17 in.</text>
    </g>
    <g
       id="g4567"
       transform="matrix(3.6594902,0,0,3.6385761,-1136.9513,-1129.8157)">
      <path
         inkscape:connector-curvature="0"
         id="path13765"
         transform="translate(-2.948621e-5,0)"
         d="m 286.375,12.4375 -15.375,4.625 15.375,4.65625 0,-3.1875 55.46875,0 0,-2.9375 -55.46875,0 0,-3.15625 z m 177.0625,0 0,3.15625 -55.5,0 0,2.9375 55.5,0 0,3.1875 15.375,-4.65625 -15.375,-4.625 z"
         style="fill:#010101" />
      <text
         style="font-size:18.0345993px;fill:#010101;font-family:ArialMT"
         id="text24"
         font-size="18.0346"
         transform="translate(350.7515,23.392)">8½ in.</text>
    </g>
    <g
       id="g4561"
       transform="matrix(3.6385684,0,0,3.6364761,-1267.8177,-1215.9572)">
      <path
         inkscape:connector-curvature="0"
         id="path14670"
         transform="translate(-2.948621e-5,0)"
         d="m 45.71875,63.5625 -4.28125,14.0625 2.9375,0 0,499.21875 2.6875,0 0,-499.21875 2.875,0 -4.21875,-14.0625 z m -1.34375,573.375 0,499.25 -2.9375,0 4.28125,14.0625 4.21875,-14.0625 -2.875,0 0,-499.25 -2.6875,0 z"
         style="fill:#010101" />
      <text
         style="font-size:16.4946003px;fill:#010101;font-family:ArialMT"
         id="text30"
         font-size="16.4946"
         transform="matrix(0,-1,1,0,51.59106,626.4815)">44 in.</text>
    </g>
    <g
       id="g4581"
       transform="matrix(3.6385761,0,0,3.6385761,-1158.6608,-1216.4972)">
      <path
         inkscape:connector-curvature="0"
         id="path14678"
         transform="matrix(0.999999,0,0,0.999078,27.44428,0.701237)"
         d="M 18.28125,607.0625 14,621.09375 l 2.9375,0 0,223.90625 2.6875,0 0,-223.90625 2.875,0 -4.21875,-14.03125 z m -1.34375,305.09375 0,223.93755 -2.9375,0 4.28125,14 4.21875,-14 -2.875,0 0,-223.93755 -2.6875,0 z"
         style="fill:#010101" />
      <text
         style="font-size:16.4946003px;fill:#010101;font-family:ArialMT"
         id="text33"
         font-size="16.4946"
         transform="matrix(0,-1,1,0,51.62201,898.1815)">22 in.</text>
    </g>
    <g
       id="g4556"
       transform="matrix(3.6383689,0,0,3.6565426,-1058.7989,-1224.4635)">
      <path
         inkscape:connector-curvature="0"
         id="path14672"
         transform="translate(-2.948621e-5,0)"
         d="M 18.28125,335.96875 14,350.03125 l 2.9375,0 0,91.65625 2.6875,0 0,-91.65625 2.875,0 -4.21875,-14.0625 z m -1.34375,163.71875 0,91.65625 -2.9375,0 4.28125,14.0625 4.21875,-14.0625 -2.875,0 0,-91.65625 -2.6875,0 z"
         style="fill:#010101" />
      <text
         style="font-size:16.4946003px;fill:#010101;font-family:ArialMT"
         id="text36"
         font-size="16.4946"
         transform="matrix(0,-1,1,0,24.17772,491.0561)">11 in.</text>
    </g>
    <rect
       x="617.10626"
       y="-986.62653"
       width="1528.2019"
       height="1977.679"
       id="rect62"
       style="fill:#f5e9f4;fill-opacity:1;stroke:#000000;stroke-width:3.64148712;stroke-opacity:1" />
    <rect
       x="-911.0957"
       y="2.2111521"
       width="1528.2019"
       height="988.84125"
       id="rect69"
       style="fill:#eedbec;fill-opacity:1;stroke:#010101;stroke-width:3.64148712" />
    <rect
       x="-146.99474"
       y="-986.62653"
       width="764.10095"
       height="988.83771"
       id="rect76"
       style="fill:#e5c9e2;fill-opacity:1;stroke:#010101;stroke-width:3.64148712" />
    <g
       id="g4551"
       transform="matrix(3.6383875,0,0,3.6603422,-1061.0075,-1219.7642)">
      <path
         inkscape:connector-curvature="0"
         id="path13765_2_"
         transform="translate(-2.948621e-5,0)"
         d="m 18.875,64.1875 -4.625,19.90625 3.15625,0 0,88.6875 2.9375,0 0,-88.6875 3.1875,0 L 18.875,64.1875 z m -1.46875,160.5625 0,88.65625 -3.15625,0 4.625,19.9375 4.65625,-19.9375 -3.1875,0 0,-88.65625 -2.9375,0 z"
         style="fill:#010101" />
      <text
         style="font-size:16.4946003px;fill:#010101;font-family:ArialMT"
         id="text97"
         font-size="16.4946"
         transform="matrix(0,-1,1,0,24.81834,219.1342)">11 in.</text>
    </g>
    <rect
       x="76.784904"
       y="-358.87756"
       width="316.54156"
       height="130.98146"
       id="rect99"
       style="fill:none" />
    <rect
       x="-488.09671"
       y="652.65027"
       width="682.20392"
       height="130.98146"
       id="rect103"
       style="fill:none" />
    <text
       transform="scale(0.99878218,1.0012193)"
       xml:space="preserve"
       style="font-size:966.01171874999988631px;font-style:normal;font-weight:normal;text-align:center;text-anchor:middle;fill:#ffffff;fill-opacity:0.82033895000000001;stroke:#000000;stroke-width:14.00000003;stroke-linecap:butt;stroke-linejoin:miter;stroke-opacity:1;font-family:Bitstream Vera Sans;stroke-miterlimit:4;stroke-dasharray:none"
       x="601.82245"
       y="1341.9592"
       id="text3081"><tspan
         style="text-align:center;text-anchor:middle;stroke-width:14.00000003;stroke-miterlimit:4;stroke-dasharray:none"
         sodipodi:role="line"
         id="tspan3083"
         x="601.82245"
         y="1341.9592">E</tspan></text>
    <text
       transform="scale(0.99878218,1.0012193)"
       id="text3970"
       y="2192.9993"
       x="606.16693"
       style="font-size:591.29077148px;font-style:normal;font-weight:normal;text-align:center;text-anchor:middle;fill:#000000;fill-opacity:1;stroke:none;font-family:Bitstream Vera Sans"
       xml:space="preserve"><tspan
         y="2192.9993"
         x="606.16693"
         id="tspan3972"
         sodipodi:role="line">D</tspan></text>
    <text
       transform="scale(0.99878218,1.0012193)"
       xml:space="preserve"
       style="font-size:457.71789551px;font-style:normal;font-weight:normal;text-align:center;text-anchor:middle;fill:#000000;fill-opacity:1;stroke:none;font-family:Bitstream Vera Sans"
       x="1382.6697"
       y="168.82661"
       id="text3974"><tspan
         sodipodi:role="line"
         id="tspan3976"
         x="1382.6697"
         y="168.82661">C</tspan></text>
    <text
       transform="scale(0.99878218,1.0012193)"
       id="text3978"
       y="625.11243"
       x="-152.10164"
       style="font-size:354.14089966px;font-style:normal;font-weight:normal;text-align:center;text-anchor:middle;fill:#000000;fill-opacity:1;stroke:none;font-family:Bitstream Vera Sans"
       xml:space="preserve"><tspan
         y="625.11243"
         x="-152.10164"
         id="tspan3980"
         sodipodi:role="line">B</tspan></text>
    <text
       transform="scale(0.99878218,1.0012193)"
       xml:space="preserve"
       style="font-size:283.82717896px;font-style:normal;font-weight:normal;text-align:center;text-anchor:middle;fill:#000000;fill-opacity:1;stroke:none;font-family:Bitstream Vera Sans"
       x="235.34325"
       y="-388.15033"
       id="text3982"><tspan
         sodipodi:role="line"
         id="tspan3984"
         x="235.34325"
         y="-388.15033">A</tspan></text>
    <text
       xml:space="preserve"
       style="font-size:110.1372757px;font-style:normal;font-weight:normal;text-align:center;text-anchor:middle;fill:#000000;fill-opacity:1;stroke:none;font-family:Bitstream Vera Sans"
       x="-147.57797"
       y="784.62982"
       id="text3994"
       transform="scale(0.99878209,1.0012194)"><tspan
         sodipodi:role="line"
         id="tspan3996"
         x="-147.578"
         y="784.62982">(Ledger, Tabloid)</tspan></text>
    <text
       transform="scale(0.99878209,1.0012194)"
       id="text3998"
       y="-225.66225"
       x="229.99083"
       style="font-size:110.1372757px;font-style:normal;font-weight:normal;text-align:center;text-anchor:middle;fill:#000000;fill-opacity:1;stroke:none;font-family:Bitstream Vera Sans"
       xml:space="preserve"><tspan
         y="-225.66225"
         x="229.99083"
         id="tspan4000"
         sodipodi:role="line">(Letter)</tspan></text>
  </g>
</svg>
