<?xml version="1.0" encoding="UTF-8" standalone="no"?>
<svg xmlns="http://www.w3.org/2000/svg" xmlns:xlink="http://www.w3.org/1999/xlink" contentScriptType="application/ecmascript" contentStyleType="text/css" height="490px" preserveAspectRatio="none" style="width:222px;height:490px;" version="1.1" viewBox="0 0 222 490" width="222px" zoomAndPan="magnify"><defs><filter height="300%" id="f99qacslhe1oq" width="300%" x="-1" y="-1"><feGaussianBlur result="blurOut" stdDeviation="2.0"/><feColorMatrix in="blurOut" result="blurOut2" type="matrix" values="0 0 0 0 0 0 0 0 0 0 0 0 0 0 0 0 0 0 .4 0"/><feOffset dx="4.0" dy="4.0" in="blurOut2" result="blurOut3"/><feBlend in="SourceGraphic" in2="blurOut3" mode="normal"/></filter></defs><g><!--cluster Phase d'écriture--><path d="M25,31 C25,28 27,26 30,26 C33,26 35,28 35,31 C35,28 37,26 40,26 C43,26 45,28 45,31 C45,28 47,26 50,26 C53,26 55,28 55,31 C55,28 57,26 60,26 C63,26 65,28 65,31 C65,28 67,26 70,26 C73,26 75,28 75,31 C75,28 77,26 80,26 C83,26 85,28 85,31 C85,28 87,26 90,26 C93,26 95,28 95,31 C95,28 97,26 100,26 C103,26 105,28 105,31 C105,28 107,26 110,26 C113,26 115,28 115,31 C115,28 117,26 120,26 C123,26 125,28 125,31 C125,28 127,26 130,26 C133,26 135,28 135,31 C135,28 137,26 140,26 C143,26 145,28 145,31 C145,28 147,26 150,26 C153,26 155,28 155,31 C155,28 157,26 160,26 C163,26 165,28 165,31 C165,28 167,26 170,26 C173,26 175,28 175,31 C175,28 177,26 180,26 C183,26 185,28 185,31 C185,28 187,26 190,26 C193,26 195,28 195,31 C195,28 197,26 200,26 C203,26 205,28 205,31 C208,31 210,33 210,36 C210,39 208,41 205,41 C208,41 210,43 210,46 C210,49 208,51 205,51 C208,51 210,53 210,56 C210,59 208,61 205,61 C208,61 210,63 210,66 C210,69 208,71 205,71 C208,71 210,73 210,76 C210,79 208,81 205,81 C208,81 210,83 210,86 C210,89 208,91 205,91 C208,91 210,93 210,96 C210,99 208,101 205,101 C208,101 210,103 210,106 C210,109 208,111 205,111 C208,111 210,113 210,116 C210,119 208,121 205,121 C208,121 210,123 210,126 C210,129 208,131 205,131 C205,134 202,136 200,136 C197,136 195,134 195,131 C195,134 192,136 190,136 C187,136 185,134 185,131 C185,134 182,136 180,136 C177,136 175,134 175,131 C175,134 172,136 170,136 C167,136 165,134 165,131 C165,134 162,136 160,136 C157,136 155,134 155,131 C155,134 152,136 150,136 C147,136 145,134 145,131 C145,134 142,136 140,136 C137,136 135,134 135,131 C135,134 132,136 130,136 C127,136 125,134 125,131 C125,134 122,136 120,136 C117,136 115,134 115,131 C115,134 112,136 110,136 C107,136 105,134 105,131 C105,134 102,136 100,136 C97,136 95,134 95,131 C95,134 92,136 90,136 C87,136 85,134 85,131 C85,134 82,136 80,136 C77,136 75,134 75,131 C75,134 72,136 70,136 C67,136 65,134 65,131 C65,134 62,136 60,136 C57,136 55,134 55,131 C55,134 52,136 50,136 C47,136 45,134 45,131 C45,134 42,136 40,136 C37,136 35,134 35,131 C35,134 32,136 30,136 C27,136 25,134 25,131 C22,131 20,129 20,126 C20,123 22,121 25,121 C22,121 20,119 20,116 C20,113 22,111 25,111 C22,111 20,109 20,106 C20,103 22,101 25,101 C22,101 20,99 20,96 C20,93 22,91 25,91 C22,91 20,89 20,86 C20,83 22,81 25,81 C22,81 20,79 20,76 C20,73 22,71 25,71 C22,71 20,69 20,66 C20,63 22,61 25,61 C22,61 20,59 20,56 C20,53 22,51 25,51 C22,51 20,49 20,46 C20,43 22,41 25,41 C22,41 20,39 20,36 C20,33 22,31 25,31 " fill="#FFFFFF" filter="url(#f99qacslhe1oq)" style="stroke: #000000; stroke-width: 1.5;"/><text fill="#000000" font-family="Ubuntu Mono" font-size="12" font-weight="bold" lengthAdjust="spacingAndGlyphs" textLength="96" x="67" y="46.9601">Phase d'écriture</text><!--cluster Phase de relecture--><path d="M25,168 C25,165 27,163 30,163 C33,163 35,165 35,168 C35,165 37,163 40,163 C43,163 45,165 45,168 C45,165 47,163 50,163 C53,163 55,165 55,168 C55,165 57,163 60,163 C63,163 65,165 65,168 C65,165 67,163 70,163 C73,163 75,165 75,168 C75,165 77,163 80,163 C83,163 85,165 85,168 C85,165 87,163 90,163 C93,163 95,165 95,168 C95,165 97,163 100,163 C103,163 105,165 105,168 C105,165 107,163 110,163 C113,163 115,165 115,168 C115,165 117,163 120,163 C123,163 125,165 125,168 C125,165 127,163 130,163 C133,163 135,165 135,168 C135,165 137,163 140,163 C143,163 145,165 145,168 C145,165 147,163 150,163 C153,163 155,165 155,168 C155,165 157,163 160,163 C163,163 165,165 165,168 C165,165 167,163 170,163 C173,163 175,165 175,168 C175,165 177,163 180,163 C183,163 185,165 185,168 C185,165 187,163 190,163 C193,163 195,165 195,168 C195,165 197,163 200,163 C203,163 205,165 205,168 C208,168 210,170 210,173 C210,176 208,178 205,178 C208,178 210,180 210,183 C210,186 208,188 205,188 C208,188 210,190 210,193 C210,196 208,198 205,198 C208,198 210,200 210,203 C210,206 208,208 205,208 C208,208 210,210 210,213 C210,216 208,218 205,218 C208,218 210,220 210,223 C210,226 208,228 205,228 C208,228 210,230 210,233 C210,236 208,238 205,238 C208,238 210,240 210,243 C210,246 208,248 205,248 C208,248 210,250 210,253 C210,256 208,258 205,258 C208,258 210,260 210,263 C210,266 208,268 205,268 C205,271 202,273 200,273 C197,273 195,271 195,268 C195,271 192,273 190,273 C187,273 185,271 185,268 C185,271 182,273 180,273 C177,273 175,271 175,268 C175,271 172,273 170,273 C167,273 165,271 165,268 C165,271 162,273 160,273 C157,273 155,271 155,268 C155,271 152,273 150,273 C147,273 145,271 145,268 C145,271 142,273 140,273 C137,273 135,271 135,268 C135,271 132,273 130,273 C127,273 125,271 125,268 C125,271 122,273 120,273 C117,273 115,271 115,268 C115,271 112,273 110,273 C107,273 105,271 105,268 C105,271 102,273 100,273 C97,273 95,271 95,268 C95,271 92,273 90,273 C87,273 85,271 85,268 C85,271 82,273 80,273 C77,273 75,271 75,268 C75,271 72,273 70,273 C67,273 65,271 65,268 C65,271 62,273 60,273 C57,273 55,271 55,268 C55,271 52,273 50,273 C47,273 45,271 45,268 C45,271 42,273 40,273 C37,273 35,271 35,268 C35,271 32,273 30,273 C27,273 25,271 25,268 C22,268 20,266 20,263 C20,260 22,258 25,258 C22,258 20,256 20,253 C20,250 22,248 25,248 C22,248 20,246 20,243 C20,240 22,238 25,238 C22,238 20,236 20,233 C20,230 22,228 25,228 C22,228 20,226 20,223 C20,220 22,218 25,218 C22,218 20,216 20,213 C20,210 22,208 25,208 C22,208 20,206 20,203 C20,200 22,198 25,198 C22,198 20,196 20,193 C20,190 22,188 25,188 C22,188 20,186 20,183 C20,180 22,178 25,178 C22,178 20,176 20,173 C20,170 22,168 25,168 " fill="#FFFFFF" filter="url(#f99qacslhe1oq)" style="stroke: #000000; stroke-width: 1.5;"/><text fill="#000000" font-family="Ubuntu Mono" font-size="12" font-weight="bold" lengthAdjust="spacingAndGlyphs" textLength="108" x="61" y="183.9601">Phase de relecture</text><!--cluster Phase de mise en page--><path d="M37,305 C37,302 39,300 42,300 C45,300 47,302 47,305 C47,302 49,300 52,300 C55,300 57,302 57,305 C57,302 59,300 62,300 C65,300 67,302 67,305 C67,302 69,300 72,300 C75,300 77,302 77,305 C77,302 79,300 82,300 C85,300 87,302 87,305 C87,302 89,300 92,300 C95,300 97,302 97,305 C97,302 99,300 102,300 C105,300 107,302 107,305 C107,302 109,300 112,300 C115,300 117,302 117,305 C117,302 119,300 122,300 C125,300 127,302 127,305 C127,302 129,300 132,300 C135,300 137,302 137,305 C137,302 139,300 142,300 C145,300 147,302 147,305 C147,302 149,300 152,300 C155,300 157,302 157,305 C157,302 159,300 162,300 C165,300 167,302 167,305 C167,302 169,300 172,300 C175,300 177,302 177,305 C177,302 179,300 182,300 C185,300 187,302 187,305 C187,302 189,300 192,300 C195,300 197,302 197,305 C200,305 202,307 202,310 C202,313 200,315 197,315 C200,315 202,317 202,320 C202,323 200,325 197,325 C200,325 202,327 202,330 C202,333 200,335 197,335 C200,335 202,337 202,340 C202,343 200,345 197,345 C200,345 202,347 202,350 C202,353 200,355 197,355 C200,355 202,357 202,360 C202,363 200,365 197,365 C200,365 202,367 202,370 C202,373 200,375 197,375 C200,375 202,377 202,380 C202,383 200,385 197,385 C200,385 202,387 202,390 C202,393 200,395 197,395 C197,398 194,400 192,400 C189,400 187,398 187,395 C187,398 184,400 182,400 C179,400 177,398 177,395 C177,398 174,400 172,400 C169,400 167,398 167,395 C167,398 164,400 162,400 C159,400 157,398 157,395 C157,398 154,400 152,400 C149,400 147,398 147,395 C147,398 144,400 142,400 C139,400 137,398 137,395 C137,398 134,400 132,400 C129,400 127,398 127,395 C127,398 124,400 122,400 C119,400 117,398 117,395 C117,398 114,400 112,400 C109,400 107,398 107,395 C107,398 104,400 102,400 C99,400 97,398 97,395 C97,398 94,400 92,400 C89,400 87,398 87,395 C87,398 84,400 82,400 C79,400 77,398 77,395 C77,398 74,400 72,400 C69,400 67,398 67,395 C67,398 64,400 62,400 C59,400 57,398 57,395 C57,398 54,400 52,400 C49,400 47,398 47,395 C47,398 44,400 42,400 C39,400 37,398 37,395 C34,395 32,393 32,390 C32,387 34,385 37,385 C34,385 32,383 32,380 C32,377 34,375 37,375 C34,375 32,373 32,370 C32,367 34,365 37,365 C34,365 32,363 32,360 C32,357 34,355 37,355 C34,355 32,353 32,350 C32,347 34,345 37,345 C34,345 32,343 32,340 C32,337 34,335 37,335 C34,335 32,333 32,330 C32,327 34,325 37,325 C34,325 32,323 32,320 C32,317 34,315 37,315 C34,315 32,313 32,310 C32,307 34,305 37,305 " fill="#FFFFFF" filter="url(#f99qacslhe1oq)" style="stroke: #000000; stroke-width: 1.5;"/><text fill="#000000" font-family="Ubuntu Mono" font-size="12" font-weight="bold" lengthAdjust="spacingAndGlyphs" textLength="126" x="52" y="320.9601">Phase de mise en page</text><!--entity word--><polygon fill="#F8F8F8" filter="url(#f99qacslhe1oq)" points="38,65,48,55,192,55,192,111.0003,182,121.0003,38,121.0003,38,65" style="stroke: #000000; stroke-width: 1.5;"/><line style="stroke: #000000; stroke-width: 1.5;" x1="182" x2="191" y1="65" y2="56"/><line style="stroke: #000000; stroke-width: 1.5;" x1="38" x2="182" y1="65" y2="65"/><line style="stroke: #000000; stroke-width: 1.5;" x1="182" x2="182" y1="65" y2="121.0003"/><text fill="#000000" font-family="Ubuntu Mono" font-size="12" lengthAdjust="spacingAndGlyphs" textLength="114" x="53" y="84.9601">Traitement de texte</text><text fill="#000000" font-family="Ubuntu Mono" font-size="12" lengthAdjust="spacingAndGlyphs" textLength="66" x="53" y="96.9602">de l'auteur</text><text fill="#000000" font-family="Ubuntu Mono" font-size="12" lengthAdjust="spacingAndGlyphs" textLength="36" x="53" y="108.9602">(Word)</text><!--entity word2--><polygon fill="#F8F8F8" filter="url(#f99qacslhe1oq)" points="38,202,48,192,192,192,192,248.0003,182,258.0003,38,258.0003,38,202" style="stroke: #000000; stroke-width: 1.5;"/><line style="stroke: #000000; stroke-width: 1.5;" x1="182" x2="191" y1="202" y2="193"/><line style="stroke: #000000; stroke-width: 1.5;" x1="38" x2="182" y1="202" y2="202"/><line style="stroke: #000000; stroke-width: 1.5;" x1="182" x2="182" y1="202" y2="258.0003"/><text fill="#000000" font-family="Ubuntu Mono" font-size="12" lengthAdjust="spacingAndGlyphs" textLength="114" x="53" y="221.9601">Traitement de texte</text><text fill="#000000" font-family="Ubuntu Mono" font-size="12" lengthAdjust="spacingAndGlyphs" textLength="72" x="53" y="233.9602">de l'éditeur</text><text fill="#000000" font-family="Ubuntu Mono" font-size="12" lengthAdjust="spacingAndGlyphs" textLength="36" x="53" y="245.9602">(Word)</text><!--entity indesign--><polygon fill="#F8F8F8" filter="url(#f99qacslhe1oq)" points="50,339,60,329,180,329,180,373.0002,170,383.0002,50,383.0002,50,339" style="stroke: #000000; stroke-width: 1.5;"/><line style="stroke: #000000; stroke-width: 1.5;" x1="170" x2="179" y1="339" y2="330"/><line style="stroke: #000000; stroke-width: 1.5;" x1="50" x2="170" y1="339" y2="339"/><line style="stroke: #000000; stroke-width: 1.5;" x1="170" x2="170" y1="339" y2="383.0002"/><text fill="#000000" font-family="Ubuntu Mono" font-size="12" lengthAdjust="spacingAndGlyphs" textLength="90" x="65" y="358.9601">Logiciel de PAO</text><text fill="#000000" font-family="Ubuntu Mono" font-size="12" lengthAdjust="spacingAndGlyphs" textLength="60" x="65" y="370.9602">(InDesign)</text><ellipse cx="66.9088" cy="461.1636" fill="#F8F8F8" filter="url(#f99qacslhe1oq)" rx="40.9088" ry="18.1636" style="stroke: #383838; stroke-width: 1.5;"/><text fill="#000000" font-family="Ubuntu Mono" font-size="12" lengthAdjust="spacingAndGlyphs" textLength="18" x="57.9088" y="454.9336">PDF</text><text fill="#000000" font-family="Ubuntu Mono" font-size="12" lengthAdjust="spacingAndGlyphs" textLength="60" x="36.9088" y="466.9337">impression</text><ellipse cx="162.9706" cy="460.9853" fill="#F8F8F8" filter="url(#f99qacslhe1oq)" rx="19.9706" ry="11.4853" style="stroke: #383838; stroke-width: 1.5;"/><text fill="#000000" font-family="Ubuntu Mono" font-size="12" lengthAdjust="spacingAndGlyphs" textLength="24" x="150.9706" y="463.4854">EPUB</text><!--link word to word2--><path d="M115,121.336 C115,141.039 115,166.289 115,186.817 " fill="none" id="word-word2" style="stroke: #383838; stroke-width: 2.0;"/><polygon fill="#383838" points="115,191.928,119,182.928,115,186.928,111,182.928,115,191.928" style="stroke: #383838; stroke-width: 1.0;"/><!--link word2 to indesign--><path d="M115,258.219 C115,278.223 115,303.807 115,323.647 " fill="none" id="word2-indesign" style="stroke: #383838; stroke-width: 2.0;"/><polygon fill="#383838" points="115,328.82,119,319.82,115,323.82,111,319.82,115,328.82" style="stroke: #383838; stroke-width: 1.0;"/><!--link indesign to PDF\nimpression--><path d="M102.7634,383.2578 C94.8091,400.3263 84.5645,422.3096 77.0801,438.3699 " fill="none" id="indesign-PDF\nimpression" style="stroke: #383838; stroke-width: 1.0;"/><polygon fill="#383838" points="74.8515,443.152,82.2788,436.6839,76.9635,438.62,75.0275,433.3047,74.8515,443.152" style="stroke: #383838; stroke-width: 1.0;"/><!--link indesign to EPUB--><path d="M127.237,383.2578 C136.349,402.811 148.467,428.8139 155.997,444.9736 " fill="none" id="indesign-EPUB" style="stroke: #383838; stroke-width: 1.0;"/><polygon fill="#383838" points="158.179,449.6546,158.0023,439.8073,156.0666,445.1227,150.7513,443.1871,158.179,449.6546" style="stroke: #383838; stroke-width: 1.0;"/><!--
@startuml
skinparam monochrome true
skinparam defaultFontSize 12
skinparam defaultFontName Ubuntu Mono

cloud "Phase d'écriture" {
  node "Traitement de texte\nde l'auteur\n(Word)" as word
}

cloud "Phase de relecture" {
  node "Traitement de texte\nde l'éditeur\n(Word)" as word2
}

cloud "Phase de mise en page" {
  node "Logiciel de PAO\n(InDesign)" as indesign
}

word -[bold]-> word2
word2 -[bold]-> indesign
indesign - -> (PDF\nimpression)
indesign - -> (EPUB)

@enduml

PlantUML version 1.2018.01(Sun Jan 28 19:08:22 CET 2018)
(APACHE source distribution)
Java Runtime: OpenJDK Runtime Environment
JVM: OpenJDK 64-Bit Server VM
Java Version: 1.8.0_162-8u162-b12-0ubuntu0.16.04.2-b12
Operating System: Linux
OS Version: 4.4.0-116-generic
Default Encoding: UTF-8
Language: fr
Country: FR
--></g></svg>