<?xml version="1.0" encoding="UTF-8" standalone="no"?>
<!-- Created with Inkscape (http://www.inkscape.org/) -->

<svg
   width="477.13403"
   height="530.28363"
   id="svg3355"
   version="1.1"
   inkscape:version="1.1 (ce6663b3b7, 2021-05-25)"
   sodipodi:docname="Matrice d'Eisenhower.svg"
   xmlns:inkscape="http://www.inkscape.org/namespaces/inkscape"
   xmlns:sodipodi="http://sodipodi.sourceforge.net/DTD/sodipodi-0.dtd"
   xmlns:xlink="http://www.w3.org/1999/xlink"
   xmlns="http://www.w3.org/2000/svg"
   xmlns:svg="http://www.w3.org/2000/svg"
   xmlns:rdf="http://www.w3.org/1999/02/22-rdf-syntax-ns#"
   xmlns:cc="http://creativecommons.org/ns#"
   xmlns:dc="http://purl.org/dc/elements/1.1/">
  <title
     id="title3069">Matrice d'Eisenhower</title>
  <defs
     id="defs3" />
  <sodipodi:namedview
     inkscape:document-units="mm"
     id="base"
     pagecolor="#ffffff"
     bordercolor="#666666"
     borderopacity="1.0"
     inkscape:pageopacity="0.0"
     inkscape:pageshadow="2"
     inkscape:zoom="1.4142136"
     inkscape:cx="295.21707"
     inkscape:cy="258.44752"
     inkscape:current-layer="layer5"
     showgrid="false"
     inkscape:window-width="2488"
     inkscape:window-height="1376"
     inkscape:window-x="1992"
     inkscape:window-y="27"
     inkscape:window-maximized="1"
     showborder="false"
     inkscape:showpageshadow="false"
     borderlayer="false"
     units="mm"
     fit-margin-top="5"
     fit-margin-left="5"
     fit-margin-bottom="20"
     fit-margin-right="5"
     inkscape:pagecheckerboard="0" />
  <metadata
     id="metadata4">
    <rdf:RDF>
      <cc:Work
         rdf:about="">
        <dc:format>image/svg+xml</dc:format>
        <dc:type
           rdf:resource="http://purl.org/dc/dcmitype/StillImage" />
        <dc:title>Matrice d'Eisenhower</dc:title>
        <dc:date>16/08/2010</dc:date>
        <dc:creator>
          <cc:Agent>
            <dc:title>Jean-Bernard FRANCOIS</dc:title>
          </cc:Agent>
        </dc:creator>
        <dc:rights>
          <cc:Agent>
            <dc:title>Creative Commons Attribution-ShareAlike 3.0 Unported License</dc:title>
          </cc:Agent>
        </dc:rights>
        <dc:language>fr</dc:language>
        <dc:subject>
          <rdf:Bag>
            <rdf:li>matrice Eisenhower stratégie économie</rdf:li>
          </rdf:Bag>
        </dc:subject>
        <dc:description>stratégie économie</dc:description>
        <cc:license
           rdf:resource="http://creativecommons.org/licenses/by-sa/3.0/" />
      </cc:Work>
      <cc:License
         rdf:about="http://creativecommons.org/licenses/by-sa/3.0/">
        <cc:permits
           rdf:resource="http://creativecommons.org/ns#Reproduction" />
        <cc:permits
           rdf:resource="http://creativecommons.org/ns#Distribution" />
        <cc:requires
           rdf:resource="http://creativecommons.org/ns#Notice" />
        <cc:requires
           rdf:resource="http://creativecommons.org/ns#Attribution" />
        <cc:permits
           rdf:resource="http://creativecommons.org/ns#DerivativeWorks" />
        <cc:requires
           rdf:resource="http://creativecommons.org/ns#ShareAlike" />
      </cc:License>
    </rdf:RDF>
  </metadata>
  <g
     inkscape:label="Layer 1"
     inkscape:groupmode="layer"
     id="layer1"
     transform="translate(-141.34119,-241.00478)"
     style="display:none">
    <g
       style="font-size:30.20752144px;font-style:normal;font-variant:normal;font-weight:200;font-stretch:normal;text-align:start;line-height:125%;writing-mode:lr-tb;text-anchor:start;opacity:0.8;color:#000000;fill:#002255;fill-opacity:1;fill-rule:nonzero;stroke:none;stroke-width:0.31776375;marker:none;visibility:visible;display:inline;overflow:visible;enable-background:accumulate;font-family:'Champagne &amp; Limousines';-inkscape-font-specification:'Champagne &amp; Limousines Ultra-Light'"
       id="text2935"
       transform="translate(214.2462,0)">
      <path
         d="m 233.49132,263.37268 1.17998,0 0,14.98576 c -0.21635,1.59298 -0.88009,2.94504 -1.99122,4.05619 -1.32749,1.32748 -2.9303,1.99122 -4.80843,1.99122 -1.88797,0 -3.4957,-0.66374 -4.82317,-1.99122 -1.32748,-1.32748 -1.99122,-2.93028 -1.99122,-4.80842 l 0,-14.23353 1.17998,0 0,14.23353 c 0,1.54381 0.55066,2.86637 1.65198,3.96768 1.10131,1.10132 2.42879,1.65198 3.98243,1.65198 1.55364,0 2.8762,-0.55066 3.96769,-1.65198 1.1013,-1.10131 1.65196,-2.42387 1.65198,-3.96768 l 0,-14.23353"
         style="marker:none"
         id="path2884"
         inkscape:connector-curvature="0" />
      <path
         d="m 242.32643,272.45854 c -0.63917,0.12784 -1.28816,0.52608 -1.94697,1.19473 -1.11116,1.10132 -1.6864,2.42389 -1.72573,3.96769 l 0,6.60789 -1.17998,0 0,-12.8028 1.17998,0 0,2.33047 c 0.236,-0.34415 0.51624,-0.67848 0.84074,-1.00299 0.71782,-0.71781 1.44547,-1.19472 2.18297,-1.43072 l 0.64899,1.13573"
         style="marker:none"
         id="path2886"
         inkscape:connector-curvature="0" />
      <path
         d="m 256.07321,276.21973 c -0.22618,-1.12097 -0.76209,-2.10921 -1.60773,-2.9647 -1.16032,-1.16031 -2.55663,-1.74046 -4.18893,-1.74048 -1.63231,2e-5 -3.02862,0.58017 -4.18893,1.74048 -1.15049,1.16032 -1.72573,2.55663 -1.72573,4.18893 0,1.63231 0.57524,3.02862 1.72573,4.18893 1.16031,1.15049 2.55662,1.72573 4.18893,1.72573 1.6323,0 3.02861,-0.58016 4.18893,-1.74048 0.83581,-0.83581 1.37172,-1.81421 1.60773,-2.9352 l 0,-2.46321 m -0.0147,5.47216 c -0.22618,0.27533 -0.46218,0.54083 -0.70799,0.79649 -1.39632,1.40614 -3.08763,2.10922 -5.07392,2.10922 -1.96664,0 -3.65303,-0.69816 -5.05917,-2.09447 -1.39631,-1.40614 -2.09447,-3.09253 -2.09447,-5.05917 0,-1.98629 0.69816,-3.67268 2.09447,-5.05917 1.40614,-1.3963 3.09253,-2.09445 5.05917,-2.09447 1.98629,2e-5 3.6776,0.69325 5.07392,2.07972 0.26548,0.27534 0.51131,0.56542 0.73749,0.87024 l 0,-1.81423 1.17998,0 0,9.94135 c -2e-5,1.9273 -0.68342,3.56944 -2.05022,4.92642 -1.39632,1.40614 -3.08271,2.10921 -5.05917,2.10922 -1.97647,-10e-6 -3.66778,-0.70308 -5.07392,-2.10922 -0.28516,-0.28517 -0.54083,-0.58016 -0.76699,-0.88499 l 1.23898,-0.45724 c 0.12783,0.15733 0.27041,0.30974 0.42775,0.45724 1.15047,1.16032 2.54187,1.74047 4.17418,1.74048 1.62247,-1e-5 3.01386,-0.58016 4.17418,-1.74048 1.05214,-1.05215 1.62738,-2.29113 1.72573,-3.71694"
         style="marker:none"
         id="path2888"
         inkscape:connector-curvature="0" />
      <path
         d="m 260.61614,275.58549 11.23932,0 c -0.27534,-0.89481 -0.74242,-1.67163 -1.40123,-2.33046 -1.16032,-1.16031 -2.55663,-1.74046 -4.18893,-1.74048 -1.63232,2e-5 -3.02863,0.58017 -4.18894,1.74048 -0.68832,0.69816 -1.17506,1.47498 -1.46022,2.33046 m -0.22125,1.19473 c -0.0295,0.2065 -0.0442,0.42775 -0.0442,0.66374 0,1.63231 0.57524,3.0237 1.72572,4.17418 1.16031,1.15049 2.55662,1.72573 4.18894,1.72573 1.6323,0 3.02861,-0.58016 4.18893,-1.74048 0.19665,-0.19666 0.38348,-0.40315 0.56049,-0.61949 l 1.25373,0.4425 c -0.14751,0.24583 -0.45725,0.59982 -0.92923,1.06198 -1.39633,1.40614 -3.08763,2.10922 -5.07392,2.10922 -1.96664,0 -3.65303,-0.69816 -5.05917,-2.09447 -1.39631,-1.40614 -2.09447,-3.09253 -2.09447,-5.05917 0,-1.98629 0.69816,-3.6776 2.09447,-5.07392 1.40614,-1.3963 3.09253,-2.09445 5.05917,-2.09447 1.98629,2e-5 3.67759,0.69817 5.07392,2.09447 1.22913,1.23899 1.8437,2.70905 1.84372,4.41018 l -12.78805,0"
         style="marker:none"
         id="path2890"
         inkscape:connector-curvature="0" />
      <path
         d="m 276.38364,274.28751 0,9.94134 -1.17999,0 0,-12.8028 1.17999,0 0,0.82599 c 1.06197,-1.06197 2.30095,-1.59296 3.71694,-1.59297 1.5143,1e-5 2.74344,0.47692 3.68744,1.43072 0.95381,0.944 1.44055,2.13381 1.46023,3.56945 l 0,8.56961 -1.16524,0 0,-8.45161 c -10e-6,-1.09148 -0.39333,-2.02071 -1.17998,-2.78771 -0.78666,-0.76698 -1.72081,-1.15047 -2.80245,-1.15048 -1.07183,1e-5 -2.00106,0.37859 -2.78771,1.13573 -0.42283,0.42284 -0.73257,0.86041 -0.92923,1.31273"
         style="marker:none"
         id="path2892"
         inkscape:connector-curvature="0" />
      <path
         d="m 289.80592,271.42605 0,-5.44266 1.16523,0 0,5.44266 2.61071,0 0,1.17999 -2.61071,0 0,11.62281 -1.16523,0 0,-11.62281 -2.61071,0 0,-1.17999 2.61071,0"
         style="marker:none"
         id="path2894"
         inkscape:connector-curvature="0" />
    </g>
    <g
       style="font-size:30.20752144px;font-style:normal;font-variant:normal;font-weight:200;font-stretch:normal;text-align:start;line-height:125%;writing-mode:lr-tb;text-anchor:start;opacity:0.8;color:#000000;fill:#002255;fill-opacity:1;fill-rule:nonzero;stroke:none;stroke-width:0.31776375;marker:none;visibility:visible;display:inline;overflow:visible;enable-background:accumulate;font-family:'Champagne &amp; Limousines';-inkscape-font-specification:'Champagne &amp; Limousines Ultra-Light'"
       id="text2939"
       transform="translate(-173.44932,0)">
      <path
         d="m 402.62355,277.00147 0,7.22738 -1.17998,0 0,-20.85617 5.47216,0 c 1.59297,0.21635 2.94503,0.88009 4.05619,1.99122 1.32746,1.33733 1.9912,2.94014 1.99122,4.80842 -2e-5,1.88799 -0.66376,3.50063 -1.99122,4.83793 -1.32749,1.32748 -2.9303,1.99122 -4.80843,1.99122 l -3.53994,0 m 0,-12.43406 0,11.23932 3.53994,0 c 1.54381,10e-6 2.86637,-0.54573 3.96769,-1.63722 1.10131,-1.1013 1.65196,-2.4337 1.65198,-3.99719 -2e-5,-1.55362 -0.55067,-2.87618 -1.65198,-3.96768 -1.10132,-1.09147 -2.42388,-1.63721 -3.96769,-1.63723 l -3.53994,0"
         style="marker:none"
         id="path2897"
         inkscape:connector-curvature="0" />
      <path
         d="m 427.8309,284.22885 -1.17998,0 0,-2.61071 c -0.22618,0.30483 -0.47201,0.59491 -0.73749,0.87024 -1.39632,1.40614 -3.08763,2.10922 -5.07392,2.10922 -1.96664,0 -3.65303,-0.69816 -5.05917,-2.09447 -1.39631,-1.40614 -2.09447,-3.09253 -2.09446,-5.05917 -10e-6,-1.98629 0.69815,-3.6776 2.09446,-5.07392 1.40614,-1.3963 3.09253,-2.09445 5.05917,-2.09447 1.98629,2e-5 3.6776,0.69817 5.07392,2.09447 0.26548,0.27534 0.51131,0.56542 0.73749,0.87024 l 0,-1.81423 1.17998,0 0,12.8028 m -1.17998,-5.63441 0,-2.31571 c -0.21634,-1.15048 -0.75717,-2.15838 -1.62247,-3.0237 -1.16033,-1.16031 -2.55664,-1.74046 -4.18894,-1.74048 -1.63231,2e-5 -3.02862,0.58017 -4.18893,1.74048 -1.15049,1.16032 -1.72573,2.55663 -1.72572,4.18893 -1e-5,1.63231 0.57523,3.0237 1.72572,4.17418 1.16031,1.15049 2.55662,1.72573 4.18893,1.72573 1.6323,0 3.02861,-0.58016 4.18894,-1.74048 0.8653,-0.86531 1.40613,-1.8683 1.62247,-3.00895"
         style="marker:none"
         id="path2899"
         inkscape:connector-curvature="0" />
      <path
         d="m 433.95205,277.35546 c -0.99315,-0.54082 -1.68147,-1.00298 -2.06496,-1.38648 -0.59983,-0.59981 -0.89974,-1.32255 -0.89974,-2.16821 0,-0.84565 0.29991,-1.56838 0.89974,-2.16822 0.59982,-0.60964 1.32256,-0.91447 2.16821,-0.91448 0.84565,10e-6 1.54872,0.28025 2.10922,0.84073 0.54082,0.54084 0.81123,1.16033 0.81124,1.85847 l 0,0.059 -1.01774,0.413 c -0.0885,-0.65882 -0.295,-1.15539 -0.61949,-1.48973 -0.3245,-0.33432 -0.75224,-0.50148 -1.28323,-0.50149 -0.52116,10e-6 -0.96857,0.18684 -1.34223,0.56049 -0.37366,0.37367 -0.56049,0.82108 -0.56049,1.34223 0,0.52116 0.18683,0.96857 0.56049,1.34223 0.21633,0.22617 0.67357,0.56049 1.37173,1.00298 1.11115,0.59983 1.90272,1.13574 2.37471,1.60772 0.73748,0.74733 1.10623,1.63723 1.10624,2.66971 -10e-6,1.06199 -0.36876,1.96664 -1.10624,2.71396 -0.73749,0.73749 -1.63231,1.10623 -2.68445,1.10623 -1.05216,0 -1.94697,-0.36874 -2.68446,-1.10623 -0.73749,-0.74732 -1.10623,-1.56347 -1.10623,-2.44846 l 1.16523,-0.295 c 0,0.75716 0.25566,1.39632 0.76699,1.91747 0.52115,0.51133 1.14064,0.76699 1.85847,0.76699 0.71781,0 1.3373,-0.25566 1.85847,-0.76699 0.52115,-0.52115 0.78173,-1.15048 0.78174,-1.88797 -1e-5,-0.71782 -0.26059,-1.33239 -0.78174,-1.84372 -0.27534,-0.27532 -0.83583,-0.6834 -1.68148,-1.22423"
         style="marker:none"
         id="path2901"
         inkscape:connector-curvature="0" />
      <path
         d="m 452.72851,284.40585 c -1.60282,0 -2.87621,-0.47199 -3.82019,-1.41598 -0.94399,-0.94398 -1.43073,-2.13871 -1.46023,-3.58419 l 0,-7.99438 1.17998,0 0,7.89113 c 0,1.08165 0.39332,2.00597 1.17998,2.77296 0.77682,0.77682 1.74539,1.16523 2.90571,1.16523 1.08164,0 2.01087,-0.3835 2.7877,-1.15048 0.78665,-0.77682 1.17997,-1.70606 1.17998,-2.78771 l 0,-7.89113 1.17998,0 0,7.99438 c -0.0295,1.44548 -0.51625,2.64021 -1.46022,3.58419 -0.944,0.94399 -2.16823,1.41598 -3.67269,1.41598"
         style="marker:none"
         id="path2903"
         inkscape:connector-curvature="0" />
      <path
         d="m 465.13306,272.45854 c -0.63916,0.12784 -1.28815,0.52608 -1.94697,1.19473 -1.11115,1.10132 -1.68639,2.42389 -1.72572,3.96769 l 0,6.60789 -1.17998,0 0,-12.8028 1.17998,0 0,2.33047 c 0.23599,-0.34415 0.51624,-0.67848 0.84074,-1.00299 0.71782,-0.71781 1.44547,-1.19472 2.18296,-1.43072 l 0.64899,1.13573"
         style="marker:none"
         id="path2905"
         inkscape:connector-curvature="0" />
      <path
         d="m 478.87984,276.21973 c -0.22617,-1.12097 -0.76208,-2.10921 -1.60772,-2.9647 -1.16033,-1.16031 -2.55664,-1.74046 -4.18894,-1.74048 -1.63231,2e-5 -3.02862,0.58017 -4.18893,1.74048 -1.15048,1.16032 -1.72572,2.55663 -1.72572,4.18893 0,1.63231 0.57524,3.02862 1.72572,4.18893 1.16031,1.15049 2.55662,1.72573 4.18893,1.72573 1.6323,0 3.02861,-0.58016 4.18894,-1.74048 0.8358,-0.83581 1.37171,-1.81421 1.60772,-2.9352 l 0,-2.46321 m -0.0147,5.47216 c -0.22617,0.27533 -0.46217,0.54083 -0.70799,0.79649 -1.39632,1.40614 -3.08762,2.10922 -5.07392,2.10922 -1.96664,0 -3.65303,-0.69816 -5.05917,-2.09447 -1.39631,-1.40614 -2.09446,-3.09253 -2.09446,-5.05917 0,-1.98629 0.69815,-3.67268 2.09446,-5.05917 1.40614,-1.3963 3.09253,-2.09445 5.05917,-2.09447 1.9863,2e-5 3.6776,0.69325 5.07392,2.07972 0.26549,0.27534 0.51132,0.56542 0.73749,0.87024 l 0,-1.81423 1.17998,0 0,9.94135 c -10e-6,1.9273 -0.68342,3.56944 -2.05021,4.92642 -1.39633,1.40614 -3.08272,2.10921 -5.05917,2.10922 -1.97648,-10e-6 -3.66778,-0.70308 -5.07392,-2.10922 -0.28517,-0.28517 -0.54083,-0.58016 -0.76699,-0.88499 l 1.23898,-0.45724 c 0.12783,0.15733 0.27041,0.30974 0.42774,0.45724 1.15048,1.16032 2.54187,1.74047 4.17419,1.74048 1.62246,-1e-5 3.01385,-0.58016 4.17418,-1.74048 1.05214,-1.05215 1.62738,-2.29113 1.72572,-3.71694"
         style="marker:none"
         id="path2907"
         inkscape:connector-curvature="0" />
      <path
         d="m 483.42277,275.58549 11.23932,0 c -0.27534,-0.89481 -0.74242,-1.67163 -1.40123,-2.33046 -1.16032,-1.16031 -2.55663,-1.74046 -4.18893,-1.74048 -1.63231,2e-5 -3.02862,0.58017 -4.18893,1.74048 -0.68833,0.69816 -1.17507,1.47498 -1.46023,2.33046 m -0.22125,1.19473 c -0.0295,0.2065 -0.0443,0.42775 -0.0443,0.66374 0,1.63231 0.57524,3.0237 1.72573,4.17418 1.16031,1.15049 2.55662,1.72573 4.18893,1.72573 1.6323,0 3.02861,-0.58016 4.18893,-1.74048 0.19666,-0.19666 0.38349,-0.40315 0.5605,-0.61949 l 1.25373,0.4425 c -0.14752,0.24583 -0.45726,0.59982 -0.92924,1.06198 -1.39632,1.40614 -3.08763,2.10922 -5.07392,2.10922 -1.96664,0 -3.65303,-0.69816 -5.05917,-2.09447 -1.39631,-1.40614 -2.09447,-3.09253 -2.09447,-5.05917 0,-1.98629 0.69816,-3.6776 2.09447,-5.07392 1.40614,-1.3963 3.09253,-2.09445 5.05917,-2.09447 1.98629,2e-5 3.6776,0.69817 5.07392,2.09447 1.22913,1.23899 1.84371,2.70905 1.84372,4.41018 l -12.78805,0"
         style="marker:none"
         id="path2909"
         inkscape:connector-curvature="0" />
      <path
         d="m 499.19027,274.28751 0,9.94134 -1.17998,0 0,-12.8028 1.17998,0 0,0.82599 c 1.06198,-1.06197 2.30096,-1.59296 3.71694,-1.59297 1.5143,1e-5 2.74345,0.47692 3.68744,1.43072 0.95381,0.944 1.44055,2.13381 1.46023,3.56945 l 0,8.56961 -1.16523,0 0,-8.45161 c -1e-5,-1.09148 -0.39334,-2.02071 -1.17998,-2.78771 -0.78666,-0.76698 -1.72081,-1.15047 -2.80246,-1.15048 -1.07182,1e-5 -2.00105,0.37859 -2.7877,1.13573 -0.42283,0.42284 -0.73258,0.86041 -0.92924,1.31273"
         style="marker:none"
         id="path2911"
         inkscape:connector-curvature="0" />
      <path
         d="m 512.61256,271.42605 0,-5.44266 1.16523,0 0,5.44266 2.61071,0 0,1.17999 -2.61071,0 0,11.62281 -1.16523,0 0,-11.62281 -2.61071,0 0,-1.17999 2.61071,0"
         style="marker:none"
         id="path2913"
         inkscape:connector-curvature="0" />
    </g>
    <g
       transform="matrix(0,-1,1,0,0,7.493495)"
       style="font-size:30.20752144px;font-style:normal;font-variant:normal;font-weight:200;font-stretch:normal;text-align:start;line-height:125%;writing-mode:lr-tb;text-anchor:start;opacity:0.8;color:#000000;fill:#002255;fill-opacity:1;fill-rule:nonzero;stroke:none;stroke-width:0.31776375;marker:none;visibility:visible;display:inline;overflow:visible;enable-background:accumulate;font-family:'Champagne &amp; Limousines';-inkscape-font-specification:'Champagne &amp; Limousines Ultra-Light'"
       id="text2943">
      <path
         d="m -635.37703,179.79672 0,7.22739 -1.17998,0 0,-20.85617 5.47216,0 c 1.59297,0.21635 2.94503,0.88009 4.05619,1.99122 1.32746,1.33733 1.9912,2.94013 1.99122,4.80842 -2e-5,1.88798 -0.66376,3.50062 -1.99122,4.83792 -1.32749,1.32749 -2.9303,1.99123 -4.80843,1.99122 l -3.53994,0 m 0,-12.43405 0,11.23932 3.53994,0 c 1.54381,1e-5 2.86637,-0.54573 3.96769,-1.63722 1.10131,-1.10131 1.65196,-2.4337 1.65198,-3.99719 -2e-5,-1.55362 -0.55067,-2.87619 -1.65198,-3.96769 -1.10132,-1.09146 -2.42388,-1.6372 -3.96769,-1.63722 l -3.53994,0"
         style="marker:none"
         id="path2935"
         inkscape:connector-curvature="0" />
      <path
         d="m -610.16968,187.02411 -1.17998,0 0,-2.61071 c -0.22618,0.30483 -0.47201,0.59491 -0.73749,0.87024 -1.39632,1.40614 -3.08763,2.10921 -5.07392,2.10921 -1.96664,0 -3.65303,-0.69815 -5.05917,-2.09446 -1.39631,-1.40615 -2.09447,-3.09253 -2.09446,-5.05917 -10e-6,-1.9863 0.69815,-3.6776 2.09446,-5.07392 1.40614,-1.3963 3.09253,-2.09446 5.05917,-2.09447 1.98629,1e-5 3.6776,0.69817 5.07392,2.09447 0.26548,0.27534 0.51131,0.56542 0.73749,0.87023 l 0,-1.81422 1.17998,0 0,12.8028 m -1.17998,-5.63441 0,-2.31572 c -0.21634,-1.15047 -0.75717,-2.15837 -1.62247,-3.0237 -1.16033,-1.1603 -2.55664,-1.74046 -4.18894,-1.74047 -1.63231,1e-5 -3.02862,0.58017 -4.18893,1.74047 -1.15049,1.16033 -1.72573,2.55664 -1.72572,4.18894 -10e-6,1.63231 0.57523,3.0237 1.72572,4.17418 1.16031,1.15048 2.55662,1.72572 4.18893,1.72572 1.6323,0 3.02861,-0.58015 4.18894,-1.74047 0.8653,-0.86532 1.40613,-1.8683 1.62247,-3.00895"
         style="marker:none"
         id="path2937"
         inkscape:connector-curvature="0" />
      <path
         d="m -604.04853,180.15072 c -0.99315,-0.54082 -1.68147,-1.00298 -2.06496,-1.38648 -0.59983,-0.59982 -0.89974,-1.32255 -0.89974,-2.16822 0,-0.84564 0.29991,-1.56838 0.89974,-2.16821 0.59982,-0.60965 1.32256,-0.91447 2.16821,-0.91449 0.84565,2e-5 1.54872,0.28026 2.10922,0.84074 0.54082,0.54084 0.81123,1.16033 0.81124,1.85847 l 0,0.059 -1.01774,0.41299 c -0.0885,-0.65881 -0.295,-1.15538 -0.61949,-1.48972 -0.3245,-0.33432 -0.75224,-0.50148 -1.28323,-0.5015 -0.52116,2e-5 -0.96857,0.18685 -1.34223,0.5605 -0.37366,0.37367 -0.56049,0.82108 -0.56049,1.34222 0,0.52117 0.18683,0.96858 0.56049,1.34223 0.21633,0.22617 0.67357,0.5605 1.37173,1.00299 1.11115,0.59983 1.90272,1.13574 2.37471,1.60772 0.73749,0.74733 1.10623,1.63723 1.10624,2.66971 -10e-6,1.06199 -0.36875,1.96664 -1.10624,2.71396 -0.73749,0.73748 -1.63231,1.10623 -2.68445,1.10623 -1.05216,0 -1.94697,-0.36875 -2.68446,-1.10623 -0.73749,-0.74732 -1.10623,-1.56348 -1.10623,-2.44847 l 1.16523,-0.29499 c 0,0.75716 0.25566,1.39631 0.76699,1.91747 0.52115,0.51133 1.14064,0.76699 1.85847,0.76699 0.71781,0 1.3373,-0.25566 1.85847,-0.76699 0.52115,-0.52116 0.78173,-1.15048 0.78174,-1.88797 -10e-6,-0.71782 -0.26059,-1.33239 -0.78174,-1.84372 -0.27534,-0.27532 -0.83583,-0.6834 -1.68148,-1.22423"
         style="marker:none"
         id="path2939"
         inkscape:connector-curvature="0" />
      <path
         d="m -588.91527,174.22131 0,12.8028 -1.16523,0 0,-12.8028 1.16523,0 m -0.57524,-4.52818 c 0.31466,2e-5 0.58507,0.1131 0.81124,0.33925 0.23599,0.22618 0.35399,0.49659 0.35399,0.81124 0,0.33434 -0.118,0.61458 -0.35399,0.84073 -0.22617,0.22618 -0.49658,0.33926 -0.81124,0.33925 -0.32449,1e-5 -0.60474,-0.11307 -0.84073,-0.33925 -0.22617,-0.22615 -0.33925,-0.50639 -0.33925,-0.84073 0,-0.31465 0.11308,-0.58506 0.33925,-0.81124 0.23599,-0.22615 0.51624,-0.33923 0.84073,-0.33925"
         style="marker:none"
         id="path2941"
         inkscape:connector-curvature="0" />
      <path
         d="m -585.71457,174.22131 1.17998,0 0,0.30975 c 0.72766,-0.70798 1.59789,-1.06197 2.61071,-1.06199 1.05215,2e-5 1.94697,0.36876 2.68446,1.10624 0.19666,0.19667 0.36874,0.413 0.51624,0.64899 0.15733,-0.22616 0.33924,-0.44248 0.54574,-0.64899 0.73748,-0.73748 1.6323,-1.10622 2.68446,-1.10624 1.05214,2e-5 1.94696,0.36876 2.68446,1.10624 0.69814,0.71783 1.06688,1.57332 1.10623,2.56646 l 0,9.88234 -1.17998,0 0,-9.88234 0.0147,0 c -0.0295,-0.67848 -0.28518,-1.25372 -0.76699,-1.72573 -0.52117,-0.51131 -1.14066,-0.76697 -1.85847,-0.76699 -0.72766,2e-5 -1.35207,0.25568 -1.87322,0.76699 -0.51133,0.51134 -0.767,1.1505 -0.76699,1.91747 l 0,9.6906 -1.16523,0 0,-9.88234 0.0147,0 c -0.0393,-0.67848 -0.29992,-1.25372 -0.78174,-1.72573 -0.52116,-0.51131 -1.14065,-0.76697 -1.85847,-0.76699 -0.71782,2e-5 -1.3324,0.25568 -1.84372,0.76699 -0.45233,0.44251 -0.70799,0.98333 -0.76699,1.62248 l 0,9.98559 -1.17998,0 0,-12.8028"
         style="marker:none"
         id="path2943"
         inkscape:connector-curvature="0" />
      <path
         d="m -568.88508,174.22131 1.17998,0 0,1.79947 c 0.21633,-0.29498 0.46216,-0.58014 0.73749,-0.85548 1.39631,-1.38647 3.0827,-2.07971 5.05917,-2.07972 1.97646,1e-5 3.66285,0.69817 5.05917,2.09447 1.3963,1.38649 2.09445,3.07287 2.09447,5.05917 -2e-5,1.96664 -0.69817,3.65302 -2.09447,5.05917 -1.39632,1.39631 -3.08271,2.09446 -5.05917,2.09446 -1.97647,0 -3.66286,-0.70307 -5.05917,-2.10921 -0.27533,-0.27533 -0.52116,-0.56049 -0.73749,-0.85549 l 0,7.47813 -1.17998,0 0,-17.68497 m 1.17998,4.79368 0,2.44846 c 0.21633,1.12098 0.75224,2.1043 1.60773,2.94995 1.16031,1.16032 2.55662,1.74047 4.18893,1.74047 1.6323,0 3.02369,-0.57524 4.17418,-1.72572 1.16031,-1.16031 1.74046,-2.55662 1.74048,-4.18893 -2e-5,-1.6323 -0.58017,-3.02861 -1.74048,-4.18894 -1.15049,-1.1603 -2.54188,-1.74046 -4.17418,-1.74047 -1.63231,1e-5 -3.02862,0.58017 -4.18893,1.74047 -0.85549,0.8555 -1.3914,1.84373 -1.60773,2.96471"
         style="marker:none"
         id="path2945"
         inkscape:connector-curvature="0" />
      <path
         d="m -545.6247,173.07083 c 1.98629,1e-5 3.67268,0.69817 5.05917,2.09447 1.3963,1.39632 2.09445,3.08762 2.09447,5.07392 -2e-5,1.96664 -0.69817,3.65302 -2.09447,5.05917 -1.38649,1.39631 -3.07288,2.09446 -5.05917,2.09446 -1.96664,0 -3.65303,-0.69815 -5.05917,-2.09446 -1.39631,-1.40615 -2.09446,-3.09253 -2.09446,-5.05917 0,-1.9863 0.69815,-3.6776 2.09446,-5.07392 1.40614,-1.3963 3.09253,-2.09446 5.05917,-2.09447 m 0,1.23898 c -1.63231,1e-5 -3.02862,0.58017 -4.18893,1.74047 -1.15049,1.16033 -1.72573,2.55664 -1.72572,4.18894 -10e-6,1.63231 0.57523,3.0237 1.72572,4.17418 1.16031,1.15048 2.55662,1.72572 4.18893,1.72572 1.6323,0 3.02369,-0.57524 4.17419,-1.72572 1.1603,-1.15048 1.74046,-2.54187 1.74047,-4.17418 -10e-6,-1.6323 -0.58017,-3.02861 -1.74047,-4.18894 -1.1505,-1.1603 -2.54189,-1.74046 -4.17419,-1.74047"
         style="marker:none"
         id="path2947"
         inkscape:connector-curvature="0" />
      <path
         d="m -531.39117,175.2538 c -0.63916,0.12784 -1.28815,0.52608 -1.94697,1.19473 -1.11115,1.10132 -1.68639,2.42388 -1.72572,3.96768 l 0,6.6079 -1.17999,0 0,-12.8028 1.17999,0 0,2.33046 c 0.23599,-0.34415 0.51623,-0.67847 0.84073,-1.00298 0.71782,-0.71781 1.44547,-1.19472 2.18297,-1.43073 l 0.64899,1.13574"
         style="marker:none"
         id="path2949"
         inkscape:connector-curvature="0" />
      <path
         d="m -528.27898,174.22131 0,-5.44266 1.16523,0 0,5.44266 2.61071,0 0,1.17998 -2.61071,0 0,11.62282 -1.16523,0 0,-11.62282 -2.61071,0 0,-1.17998 2.61071,0"
         style="marker:none"
         id="path2951"
         inkscape:connector-curvature="0" />
      <path
         d="m -508.80928,187.02411 -1.17998,0 0,-2.61071 c -0.22618,0.30483 -0.47201,0.59491 -0.73749,0.87024 -1.39633,1.40614 -3.08763,2.10921 -5.07392,2.10921 -1.96664,0 -3.65303,-0.69815 -5.05917,-2.09446 -1.39632,-1.40615 -2.09447,-3.09253 -2.09447,-5.05917 0,-1.9863 0.69815,-3.6776 2.09447,-5.07392 1.40614,-1.3963 3.09253,-2.09446 5.05917,-2.09447 1.98629,1e-5 3.67759,0.69817 5.07392,2.09447 0.26548,0.27534 0.51131,0.56542 0.73749,0.87023 l 0,-1.81422 1.17998,0 0,12.8028 m -1.17998,-5.63441 0,-2.31572 c -0.21635,-1.15047 -0.75717,-2.15837 -1.62248,-3.0237 -1.16032,-1.1603 -2.55663,-1.74046 -4.18893,-1.74047 -1.63232,1e-5 -3.02863,0.58017 -4.18894,1.74047 -1.15048,1.16033 -1.72572,2.55664 -1.72572,4.18894 0,1.63231 0.57524,3.0237 1.72572,4.17418 1.16031,1.15048 2.55662,1.72572 4.18894,1.72572 1.6323,0 3.02861,-0.58015 4.18893,-1.74047 0.86531,-0.86532 1.40613,-1.8683 1.62248,-3.00895"
         style="marker:none"
         id="path2953"
         inkscape:connector-curvature="0" />
      <path
         d="m -504.82685,177.08277 0,9.94134 -1.17998,0 0,-12.8028 1.17998,0 0,0.82599 c 1.06198,-1.06197 2.30096,-1.59296 3.71694,-1.59298 1.5143,2e-5 2.74345,0.47693 3.68744,1.43073 0.95381,0.944 1.44055,2.13381 1.46023,3.56944 l 0,8.56962 -1.16523,0 0,-8.45162 c -10e-6,-1.09147 -0.39334,-2.0207 -1.17998,-2.7877 -0.78666,-0.76698 -1.72081,-1.15047 -2.80246,-1.15048 -1.07182,1e-5 -2.00105,0.37858 -2.7877,1.13573 -0.42283,0.42283 -0.73258,0.86041 -0.92924,1.31273"
         style="marker:none"
         id="path2955"
         inkscape:connector-curvature="0" />
      <path
         d="m -491.40456,174.22131 0,-5.44266 1.16523,0 0,5.44266 2.61071,0 0,1.17998 -2.61071,0 0,11.62282 -1.16523,0 0,-11.62282 -2.61071,0 0,-1.17998 2.61071,0"
         style="marker:none"
         id="path2957"
         inkscape:connector-curvature="0" />
    </g>
    <g
       transform="matrix(0,-1,1,0,0,-22.506505)"
       style="font-size:30.20752144px;font-style:normal;font-variant:normal;font-weight:200;font-stretch:normal;text-align:start;line-height:125%;writing-mode:lr-tb;text-anchor:start;opacity:0.8;color:#000000;fill:#002255;fill-opacity:1;fill-rule:nonzero;stroke:none;stroke-width:0.31776375;marker:none;visibility:visible;display:inline;overflow:visible;enable-background:accumulate;font-family:'Champagne &amp; Limousines';-inkscape-font-specification:'Champagne &amp; Limousines Ultra-Light'"
       id="text2947">
      <path
         d="m -457.05164,166.16794 0,20.85617 -1.17999,0 0,-20.85617 1.17999,0"
         style="marker:none"
         id="path2916"
         inkscape:connector-curvature="0" />
      <path
         d="m -453.79195,174.22131 1.17999,0 0,0.30975 c 0.72765,-0.70798 1.59788,-1.06197 2.6107,-1.06199 1.05215,2e-5 1.94697,0.36876 2.68446,1.10624 0.19666,0.19667 0.36874,0.413 0.51624,0.64899 0.15733,-0.22616 0.33924,-0.44248 0.54574,-0.64899 0.73748,-0.73748 1.6323,-1.10622 2.68446,-1.10624 1.05214,2e-5 1.94696,0.36876 2.68446,1.10624 0.69814,0.71783 1.06688,1.57332 1.10623,2.56646 l 0,9.88234 -1.17998,0 0,-9.88234 0.0147,0 c -0.0295,-0.67848 -0.28518,-1.25372 -0.76699,-1.72573 -0.52117,-0.51131 -1.14066,-0.76697 -1.85847,-0.76699 -0.72766,2e-5 -1.35207,0.25568 -1.87322,0.76699 -0.51133,0.51134 -0.767,1.1505 -0.76699,1.91747 l 0,9.6906 -1.16523,0 0,-9.88234 0.0148,0 c -0.0393,-0.67848 -0.29992,-1.25372 -0.78174,-1.72573 -0.52116,-0.51131 -1.14065,-0.76697 -1.85847,-0.76699 -0.71782,2e-5 -1.3324,0.25568 -1.84372,0.76699 -0.45233,0.44251 -0.70799,0.98333 -0.76698,1.62248 l 0,9.98559 -1.17999,0 0,-12.8028"
         style="marker:none"
         id="path2918"
         inkscape:connector-curvature="0" />
      <path
         d="m -436.96246,174.22131 1.17998,0 0,1.79947 c 0.21633,-0.29498 0.46216,-0.58014 0.73749,-0.85548 1.3963,-1.38647 3.08269,-2.07971 5.05917,-2.07972 1.97646,1e-5 3.66284,0.69817 5.05917,2.09447 1.39629,1.38649 2.09445,3.07287 2.09446,5.05917 -10e-6,1.96664 -0.69817,3.65302 -2.09446,5.05917 -1.39633,1.39631 -3.08271,2.09446 -5.05917,2.09446 -1.97648,0 -3.66287,-0.70307 -5.05917,-2.10921 -0.27533,-0.27533 -0.52116,-0.56049 -0.73749,-0.85549 l 0,7.47813 -1.17998,0 0,-17.68497 m 1.17998,4.79368 0,2.44846 c 0.21633,1.12098 0.75223,2.1043 1.60772,2.94995 1.16031,1.16032 2.55662,1.74047 4.18894,1.74047 1.63229,0 3.02369,-0.57524 4.17418,-1.72572 1.1603,-1.16031 1.74046,-2.55662 1.74047,-4.18893 -1e-5,-1.6323 -0.58017,-3.02861 -1.74047,-4.18894 -1.15049,-1.1603 -2.54189,-1.74046 -4.17418,-1.74047 -1.63232,1e-5 -3.02863,0.58017 -4.18894,1.74047 -0.85549,0.8555 -1.39139,1.84373 -1.60772,2.96471"
         style="marker:none"
         id="path2920"
         inkscape:connector-curvature="0" />
      <path
         d="m -413.70208,173.07083 c 1.98629,1e-5 3.67268,0.69817 5.05917,2.09447 1.39629,1.39632 2.09445,3.08762 2.09446,5.07392 -10e-6,1.96664 -0.69817,3.65302 -2.09446,5.05917 -1.38649,1.39631 -3.07288,2.09446 -5.05917,2.09446 -1.96664,0 -3.65303,-0.69815 -5.05917,-2.09446 -1.39631,-1.40615 -2.09447,-3.09253 -2.09447,-5.05917 0,-1.9863 0.69816,-3.6776 2.09447,-5.07392 1.40614,-1.3963 3.09253,-2.09446 5.05917,-2.09447 m 0,1.23898 c -1.63232,1e-5 -3.02863,0.58017 -4.18894,1.74047 -1.15048,1.16033 -1.72572,2.55664 -1.72572,4.18894 0,1.63231 0.57524,3.0237 1.72572,4.17418 1.16031,1.15048 2.55662,1.72572 4.18894,1.72572 1.6323,0 3.02369,-0.57524 4.17418,-1.72572 1.1603,-1.15048 1.74046,-2.54187 1.74047,-4.17418 -1e-5,-1.6323 -0.58017,-3.02861 -1.74047,-4.18894 -1.15049,-1.1603 -2.54188,-1.74046 -4.17418,-1.74047"
         style="marker:none"
         id="path2922"
         inkscape:connector-curvature="0" />
      <path
         d="m -399.46856,175.2538 c -0.63916,0.12784 -1.28815,0.52608 -1.94697,1.19473 -1.11115,1.10132 -1.68639,2.42388 -1.72572,3.96768 l 0,6.6079 -1.17998,0 0,-12.8028 1.17998,0 0,2.33046 c 0.23599,-0.34415 0.51624,-0.67847 0.84074,-1.00298 0.71782,-0.71781 1.44547,-1.19472 2.18296,-1.43073 l 0.64899,1.13574"
         style="marker:none"
         id="path2924"
         inkscape:connector-curvature="0" />
      <path
         d="m -396.35636,174.22131 0,-5.44266 1.16524,0 0,5.44266 2.6107,0 0,1.17998 -2.6107,0 0,11.62282 -1.16524,0 0,-11.62282 -2.6107,0 0,-1.17998 2.6107,0"
         style="marker:none"
         id="path2926"
         inkscape:connector-curvature="0" />
      <path
         d="m -376.88666,187.02411 -1.17998,0 0,-2.61071 c -0.22618,0.30483 -0.47201,0.59491 -0.73749,0.87024 -1.39632,1.40614 -3.08763,2.10921 -5.07392,2.10921 -1.96664,0 -3.65303,-0.69815 -5.05917,-2.09446 -1.39631,-1.40615 -2.09447,-3.09253 -2.09447,-5.05917 0,-1.9863 0.69816,-3.6776 2.09447,-5.07392 1.40614,-1.3963 3.09253,-2.09446 5.05917,-2.09447 1.98629,1e-5 3.6776,0.69817 5.07392,2.09447 0.26548,0.27534 0.51131,0.56542 0.73749,0.87023 l 0,-1.81422 1.17998,0 0,12.8028 m -1.17998,-5.63441 0,-2.31572 c -0.21635,-1.15047 -0.75717,-2.15837 -1.62248,-3.0237 -1.16032,-1.1603 -2.55663,-1.74046 -4.18893,-1.74047 -1.63231,1e-5 -3.02862,0.58017 -4.18893,1.74047 -1.15049,1.16033 -1.72573,2.55664 -1.72573,4.18894 0,1.63231 0.57524,3.0237 1.72573,4.17418 1.16031,1.15048 2.55662,1.72572 4.18893,1.72572 1.6323,0 3.02861,-0.58015 4.18893,-1.74047 0.86531,-0.86532 1.40613,-1.8683 1.62248,-3.00895"
         style="marker:none"
         id="path2928"
         inkscape:connector-curvature="0" />
      <path
         d="m -372.90423,177.08277 0,9.94134 -1.17998,0 0,-12.8028 1.17998,0 0,0.82599 c 1.06198,-1.06197 2.30096,-1.59296 3.71695,-1.59298 1.5143,2e-5 2.74344,0.47693 3.68744,1.43073 0.9538,0.944 1.44055,2.13381 1.46022,3.56944 l 0,8.56962 -1.16523,0 0,-8.45162 c -10e-6,-1.09147 -0.39333,-2.0207 -1.17998,-2.7877 -0.78666,-0.76698 -1.72081,-1.15047 -2.80245,-1.15048 -1.07183,1e-5 -2.00106,0.37858 -2.78771,1.13573 -0.42283,0.42283 -0.73257,0.86041 -0.92924,1.31273"
         style="marker:none"
         id="path2930"
         inkscape:connector-curvature="0" />
      <path
         d="m -359.48194,174.22131 0,-5.44266 1.16523,0 0,5.44266 2.61071,0 0,1.17998 -2.61071,0 0,11.62282 -1.16523,0 0,-11.62282 -2.61071,0 0,-1.17998 2.61071,0"
         style="marker:none"
         id="path2932"
         inkscape:connector-curvature="0" />
    </g>
    <path
       style="opacity:0.8;color:#000000;fill:#e2dbe3;fill-opacity:1;fill-rule:nonzero;stroke:#453748;stroke-width:0.9479804;stroke-linecap:butt;stroke-linejoin:miter;stroke-miterlimit:4;stroke-opacity:1;stroke-dashoffset:0;marker:none;visibility:visible;display:inline;overflow:visible;enable-background:accumulate"
       d="m 204.53125,303.15625 c -1.66199,0 -3,1.338 -3,3 l 0,164.9375 c 0,1.662 1.33801,3 3,3 l 164.9375,0 c 1.662,0 3,-1.338 3,-3 l 0,-164.9375 c 0,-1.662 -1.338,-3 -3,-3 l -164.9375,0 z m 184,0 c -1.662,0 -3,1.338 -3,3 l 0,164.9375 c 0,1.662 1.338,3 3,3 l 164.9375,0 c 1.662,0 3,-1.338 3,-3 l 0,-164.9375 c 0,-1.662 -1.338,-3 -3,-3 l -164.9375,0 z m -184,182 c -1.66199,0 -3,1.338 -3,3 l 0,164.9375 c 0,1.662 1.33801,3 3,3 l 164.9375,0 c 1.662,0 3,-1.338 3,-3 l 0,-164.9375 c 0,-1.662 -1.338,-3 -3,-3 l -164.9375,0 z m 184,0 c -1.662,0 -3,1.338 -3,3 l 0,164.9375 c 0,1.662 1.338,3 3,3 l 164.9375,0 c 1.662,0 3,-1.338 3,-3 l 0,-164.9375 c 0,-1.662 -1.338,-3 -3,-3 l -164.9375,0 z"
       id="rect2929"
       inkscape:connector-curvature="0" />
  </g>
  <g
     inkscape:groupmode="layer"
     id="layer4"
     inkscape:label="Graphes"
     style="display:inline"
     transform="translate(18.096314,22.367899)">
    <path
       style="fill:#672178;fill-opacity:1;stroke:#672178;stroke-width:0.88582677;stroke-linecap:butt;stroke-linejoin:miter;stroke-miterlimit:4;stroke-opacity:1;stroke-dasharray:none"
       d="m 0.06313453,216.17168 432.04489547,0.002 -0.002,5.11161 8.77223,-5.08254 -8.77223,-5.08981 0,5.05883"
       id="path3896"
       inkscape:connector-curvature="0"
       sodipodi:nodetypes="cccccc" />
    <use
       x="0"
       y="0"
       xlink:href="#path3896"
       id="use4410"
       transform="matrix(0,-1,1,0,4.2715823,436.66981)"
       width="441.125"
       height="423.18982" />
    <rect
       style="fill:#e7e0e7;fill-opacity:1;stroke:#676767;stroke-width:0.88349855;stroke-miterlimit:4;stroke-opacity:1;stroke-dasharray:none"
       id="rect4450"
       width="171.03946"
       height="171.05904"
       x="42.604675"
       y="39.547649"
       ry="2.9922862" />
    <use
       x="0"
       y="0"
       xlink:href="#rect4450"
       id="use4452"
       transform="translate(184.02454,182.25677)"
       width="441.125"
       height="423.18982" />
    <rect
       ry="2.9922862"
       y="221.62764"
       x="42.604675"
       height="171.05904"
       width="171.03946"
       id="rect4454"
       style="fill:#e7e0e7;fill-opacity:1;stroke:#676767;stroke-width:0.88349855;stroke-miterlimit:4;stroke-opacity:1;stroke-dasharray:none" />
    <rect
       ry="2.9922862"
       y="39.547649"
       x="226.6292"
       height="171.05904"
       width="171.03946"
       id="rect4456"
       style="fill:#e7e0e7;fill-opacity:1;stroke:#676767;stroke-width:0.88349855;stroke-miterlimit:4;stroke-opacity:1;stroke-dasharray:none" />
  </g>
  <g
     inkscape:groupmode="layer"
     id="layer5"
     inkscape:label="Textes"
     style="display:inline"
     transform="translate(18.096314,22.367899)">
    <text
       xml:space="preserve"
       style="font-style:normal;font-variant:normal;font-weight:normal;font-stretch:normal;line-height:0%;font-family:Tahoma;-inkscape-font-specification:Tahoma;letter-spacing:0px;word-spacing:0px;fill:#00685e;fill-opacity:1;stroke:none"
       x="267.77164"
       y="26.118141"
       id="text4413"><tspan
         sodipodi:role="line"
         id="tspan4415"
         x="267.77164"
         y="26.118141"
         style="font-style:normal;font-variant:normal;font-weight:normal;font-stretch:normal;font-size:28px;line-height:1.25;font-family:Tahoma;-inkscape-font-specification:Tahoma;fill:#00685e;fill-opacity:1">Urgent</tspan></text>
    <text
       id="text4438"
       y="26.118141"
       x="59.882244"
       style="font-style:normal;font-variant:normal;font-weight:normal;font-stretch:normal;line-height:0%;font-family:Tahoma;-inkscape-font-specification:Tahoma;letter-spacing:0px;word-spacing:0px;fill:#00685e;fill-opacity:1;stroke:none"
       xml:space="preserve"><tspan
         style="font-style:normal;font-variant:normal;font-weight:normal;font-stretch:normal;font-size:28px;line-height:1.25;font-family:Tahoma;-inkscape-font-specification:Tahoma;fill:#00685e;fill-opacity:1"
         y="26.118141"
         x="59.882244"
         id="tspan4440"
         sodipodi:role="line">Pas urgent</tspan></text>
    <text
       id="text4442"
       y="26.489542"
       x="-176.50508"
       style="font-style:normal;font-variant:normal;font-weight:normal;font-stretch:normal;line-height:0%;font-family:Tahoma;-inkscape-font-specification:Tahoma;letter-spacing:0px;word-spacing:0px;fill:#00685e;fill-opacity:1;stroke:none"
       xml:space="preserve"
       transform="rotate(-90)"
       inkscape:transform-center-x="8.4852813"
       inkscape:transform-center-y="-13.435029"><tspan
         style="font-style:normal;font-variant:normal;font-weight:normal;font-stretch:normal;font-size:28px;line-height:1.25;font-family:Tahoma;-inkscape-font-specification:Tahoma;fill:#00685e;fill-opacity:1"
         y="26.489542"
         x="-176.50508"
         id="tspan4444"
         sodipodi:role="line">Important</tspan></text>
    <text
       inkscape:transform-center-y="-13.435029"
       inkscape:transform-center-x="8.4852813"
       transform="rotate(-90)"
       xml:space="preserve"
       style="font-style:normal;font-variant:normal;font-weight:normal;font-stretch:normal;line-height:0%;font-family:Tahoma;-inkscape-font-specification:Tahoma;letter-spacing:0px;word-spacing:0px;fill:#00685e;fill-opacity:1;stroke:none"
       x="-393.58685"
       y="26.489542"
       id="text4446"><tspan
         sodipodi:role="line"
         id="tspan4448"
         x="-393.58685"
         y="26.489542"
         style="font-style:normal;font-variant:normal;font-weight:normal;font-stretch:normal;font-size:28px;line-height:1.25;font-family:Tahoma;-inkscape-font-specification:Tahoma;fill:#00685e;fill-opacity:1">Pas important</tspan></text>
    <text
       xml:space="preserve"
       style="font-style:normal;font-variant:normal;font-weight:normal;font-stretch:normal;line-height:0%;font-family:Tahoma;-inkscape-font-specification:Tahoma;letter-spacing:0px;word-spacing:0px;display:inline;fill:#7f0018;fill-opacity:1;stroke:none"
       x="233.64413"
       y="64.106674"
       id="text4462"><tspan
         sodipodi:role="line"
         id="tspan4464"
         x="233.64413"
         y="64.106674"
         style="font-size:20px;line-height:1.25">Priorité 1000</tspan><tspan
         sodipodi:role="line"
         x="233.64413"
         y="89.106674"
         id="tspan4466"
         style="font-size:20px;line-height:1.25"> </tspan></text>
    <text
       xml:space="preserve"
       style="font-style:normal;font-variant:normal;font-weight:normal;font-stretch:normal;line-height:0%;font-family:Tahoma;-inkscape-font-specification:Tahoma;letter-spacing:0px;word-spacing:0px;display:inline;fill:#7f0018;fill-opacity:1;stroke:none"
       x="50.345829"
       y="65.062057"
       id="text4462-7"><tspan
         sodipodi:role="line"
         id="tspan4464-7"
         x="50.345829"
         y="65.062057"
         style="font-size:20px;line-height:1.25">Priorité 100</tspan><tspan
         sodipodi:role="line"
         x="50.345829"
         y="90.062057"
         id="tspan4466-1"
         style="font-size:20px;line-height:1.25"> </tspan></text>
    <text
       xml:space="preserve"
       style="font-style:normal;font-variant:normal;font-weight:normal;font-stretch:normal;line-height:0%;font-family:Tahoma;-inkscape-font-specification:Tahoma;letter-spacing:0px;word-spacing:0px;display:inline;fill:#7f0018;fill-opacity:1;stroke:none"
       x="233.87126"
       y="246.66718"
       id="text4462-2"><tspan
         sodipodi:role="line"
         id="tspan4464-6"
         x="233.87126"
         y="246.66718"
         style="font-size:20px;line-height:1.25">Priorité 10</tspan><tspan
         sodipodi:role="line"
         x="233.87126"
         y="271.66718"
         id="tspan4466-0"
         style="font-size:20px;line-height:1.25"> </tspan></text>
    <text
       xml:space="preserve"
       style="font-style:normal;font-variant:normal;font-weight:normal;font-stretch:normal;line-height:0%;font-family:Tahoma;-inkscape-font-specification:Tahoma;letter-spacing:0px;word-spacing:0px;display:inline;fill:#7f0018;fill-opacity:1;stroke:none"
       x="50.325027"
       y="247.19409"
       id="text4462-4"><tspan
         sodipodi:role="line"
         id="tspan4464-9"
         x="50.325027"
         y="247.19409"
         style="font-size:20px;line-height:1.25">Priorité 1</tspan><tspan
         sodipodi:role="line"
         x="50.325027"
         y="272.19409"
         id="tspan4466-4"
         style="font-size:20px;line-height:1.25"> </tspan></text>
    <text
       xml:space="preserve"
       style="font-style:normal;font-variant:normal;font-weight:normal;font-stretch:normal;line-height:0%;font-family:Tahoma;-inkscape-font-specification:Tahoma;letter-spacing:0px;word-spacing:0px;display:inline;fill:#7f0018;fill-opacity:1;stroke:none"
       x="272.09161"
       y="129.66002"
       id="text4462-6"><tspan
         sodipodi:role="line"
         x="272.09161"
         y="129.66002"
         id="tspan4466-3"
         style="font-size:16px;line-height:1.25">A faire </tspan><tspan
         sodipodi:role="line"
         x="272.09161"
         y="147.67955"
         style="font-size:16px;line-height:1.25"
         id="tspan4597">en priorité</tspan></text>
    <text
       xml:space="preserve"
       style="font-style:normal;font-variant:normal;font-weight:normal;font-stretch:normal;line-height:0%;font-family:Tahoma;-inkscape-font-specification:Tahoma;letter-spacing:0px;word-spacing:0px;display:inline;fill:#7f0018;fill-opacity:1;stroke:none"
       x="269.49219"
       y="309.12732"
       id="text4462-6-6"><tspan
         sodipodi:role="line"
         x="269.49219"
         y="309.12732"
         id="tspan4466-3-2"
         style="font-size:16px;line-height:1.25">Requalifier</tspan><tspan
         sodipodi:role="line"
         x="269.49219"
         y="327.14685"
         style="font-size:16px;line-height:1.25"
         id="tspan4595">Renégocier</tspan></text>
    <text
       xml:space="preserve"
       style="font-style:normal;font-variant:normal;font-weight:normal;font-stretch:normal;line-height:0%;font-family:Tahoma;-inkscape-font-specification:Tahoma;letter-spacing:0px;word-spacing:0px;display:inline;fill:#7f0018;fill-opacity:1;stroke:none"
       x="97.492188"
       y="308.12732"
       id="text4462-6-8"><tspan
         sodipodi:role="line"
         x="97.492188"
         y="308.12732"
         id="tspan4466-3-8"
         style="font-size:16px;line-height:1.25">Laisser</tspan><tspan
         sodipodi:role="line"
         x="97.492188"
         y="326.14685"
         style="font-size:16px;line-height:1.25"
         id="tspan4617">m(o)ûrir</tspan></text>
    <text
       xml:space="preserve"
       style="font-style:normal;font-variant:normal;font-weight:normal;font-stretch:normal;line-height:0%;font-family:Tahoma;-inkscape-font-specification:Tahoma;letter-spacing:0px;word-spacing:0px;display:inline;fill:#7f0018;fill-opacity:1;stroke:none"
       x="92.492188"
       y="128.12732"
       id="text4462-6-1"><tspan
         sodipodi:role="line"
         x="92.492188"
         y="128.12732"
         id="tspan4466-3-21"
         style="font-size:16px;line-height:1.25">A plannifier</tspan><tspan
         sodipodi:role="line"
         x="92.492188"
         y="146.14685"
         style="font-size:16px;line-height:1.25"
         id="tspan4628">et s'y tenir</tspan></text>
  </g>
</svg>
